<svg width="134" height="120" viewBox="0 0 134 120" fill="none" xmlns="http://www.w3.org/2000/svg">
<g clip-path="url(#clip0_204_69319)">
<path d="M10.6943 54.9793C19.0415 47.5181 10.0881 43.1192 4.01038 52.5233C-0.0466114 58.8187 3.8394 61.0881 10.6943 54.9793Z" fill="#C7FB41"/>
<path d="M2.56477 84.4041C2.48705 84.4041 2.40933 84.3886 2.33161 84.3886C2.2228 84.3886 2.09845 84.3886 1.94301 84.3886C3.49741 86.7358 5.03627 89.0984 6.73057 91.3523C7.58549 92.4249 8.4715 93.4508 9.49741 94.3523C10.1658 94.8031 10.8497 95.1917 11.5803 95.5492C15.4974 96.9948 19.7254 97.2435 23.8135 98.0207C23.7824 98.0052 23.7668 97.9741 23.7357 97.9585C23.7357 97.9585 28.5233 97.6321 31.2591 97.1658C32.5803 102.995 36.8083 106.865 39.0777 108.575C39.4352 109.088 39.7616 109.601 40.057 110.083L39.7772 110.238C42.3886 111.575 44.8756 112.959 47.2072 114.793C48.886 116.13 49.9741 118.026 51.513 119.487C51.5907 119.534 51.6684 119.58 51.7461 119.627C52.0881 119.72 52.43 119.813 52.772 119.876C54.4041 120.016 56.0363 120 57.6684 119.829C59.7202 119.487 61.7254 118.943 63.6528 118.181C67.9896 116.223 72.0933 113.658 75.886 110.798C82.0725 105.917 87.6062 100.212 92.487 94.0259C92.1606 94.4456 91.8342 94.8808 91.4922 95.3005C94.057 91.9585 96.9637 88.8031 100.819 86.9534C103.275 85.772 105.528 85.1502 108.218 84.8238C108.839 84.7461 109.461 84.715 110.067 84.715C113.549 83.4404 116.036 81.6218 116.674 81.1244L116.907 80.9534L117.964 79.9585C125.44 72.7772 132.233 65.7047 133.368 58.2746C134.161 53.0674 132.171 45.2487 131.285 42.1243C129.87 37.1503 127.492 30.6839 124.212 28.057C122.067 26.3471 119.487 25.3212 116.674 25.0725C116.269 24.6995 115.865 24.3264 115.43 23.9689C114.202 18.8394 111.093 12.3886 105.513 7.56994C99.7928 2.64248 92.627 0.139893 84.2176 0.139893C82.7099 0.139893 81.1399 0.217609 79.5388 0.388593C79.5078 0.388593 79.3368 0.404134 79.3368 0.404134C77.7202 0.575118 76.0415 0.839367 74.3472 1.18134C63.2643 3.40413 53.7824 7.67875 46.1503 13.8808C40.8031 18.2332 37.5544 22.6166 35.7824 25.4611C30.544 28.4767 28.6477 32.1606 28.1503 33.3731L27.4042 35.114L27.7772 37.3057C28.1347 39.5285 27.4508 41.4093 26.2072 43.6632L25.9741 44.0829C25.8186 44.3471 25.6787 44.6114 25.5233 44.8601L24.7772 46.1192V46.1347C24.4508 46.6943 23.4093 48.4819 23.1295 49.1036L18.8705 46.2591C18.8705 46.2591 19.1347 50.3627 17.5337 53.9378C16.228 56.8912 13.3679 59.2228 10.5233 60.9171C4.3057 64.6166 0.901556 68.4715 0.233162 72.9015C-0.202071 75.8549 0.590679 78.1243 2.62695 80.9845C2.45596 82.057 2.42487 83.1917 2.56477 84.4041Z" fill="url(#paint0_linear_204_69319)"/>
<path d="M96.4508 56.3315C96.5596 53.7979 96.7306 51.8859 96.9015 50.4714C94.8031 49.2435 91.0725 47.3626 85.9741 45.9948C88.5078 49.5854 90.5751 54.6372 90.5751 54.6372C89.1917 59.7201 87.2331 63.3108 83.9689 66.4196L88.3057 70.0103C83.4559 70.5077 78.9482 71.4248 78.9482 71.4248C78.9482 71.4248 84.6062 74.9378 84.8549 78.9481C85.1347 83.487 81.9016 90.6217 79.3212 95.5025C94.3834 84.373 97.601 75.5595 97.6321 75.4662L98.1451 73.9429C97.4145 71.5491 96.0311 65.658 96.4508 56.3315Z" fill="#743524"/>
<path d="M96.4508 56.3315C96.5596 53.7979 96.7306 51.8859 96.9015 50.4714C94.8031 49.2435 91.0725 47.3626 85.9741 45.9948C88.5078 49.5854 90.5751 54.6372 90.5751 54.6372C89.1917 59.7201 87.2331 63.3108 83.9689 66.4196L88.3057 70.0103C83.4559 70.5077 78.9482 71.4248 78.9482 71.4248C78.9482 71.4248 84.6062 74.9378 84.8549 78.9481C85.1347 83.487 81.9016 90.6217 79.3212 95.5025C94.3834 84.373 97.601 75.5595 97.6321 75.4662L98.1451 73.9429C97.4145 71.5491 96.0311 65.658 96.4508 56.3315Z" fill="url(#paint1_linear_204_69319)"/>
<path d="M52.6477 51.0466C53.7047 50.487 55.7409 48.1864 57.1865 46.4611C53.6736 47.4559 49.9896 48.8393 46.1503 50.7046C48.4508 51.1398 51.5751 51.5906 52.6477 51.0466Z" fill="#743524"/>
<path d="M52.6477 51.0466C53.7047 50.487 55.7409 48.1864 57.1865 46.4611C53.6736 47.4559 49.9896 48.8393 46.1503 50.7046C48.4508 51.1398 51.5751 51.5906 52.6477 51.0466Z" fill="url(#paint2_linear_204_69319)"/>
<path d="M89.8445 22.8809C96.4819 23.5959 101.503 24.7306 103.927 25.3679C103.166 22.6011 101.347 18.4508 97.6632 15.2798C97.2591 14.9378 96.8394 14.6114 96.4041 14.3005C93.6684 16.4922 91.1813 19.5855 89.8445 22.8809Z" fill="#2B5669"/>
<path d="M89.8445 22.8809C96.4819 23.5959 101.503 24.7306 103.927 25.3679C103.166 22.6011 101.347 18.4508 97.6632 15.2798C97.2591 14.9378 96.8394 14.6114 96.4041 14.3005C93.6684 16.4922 91.1813 19.5855 89.8445 22.8809Z" fill="url(#paint3_linear_204_69319)"/>
<path d="M56.5492 21.342C55.9585 22.7876 55.4456 24.0467 55.057 25.1659C55.7875 24.9793 56.5026 24.7928 57.2176 24.6374C58.3989 21.3576 60.3109 18.3265 62.4715 15.7617C57 18.3109 53.0673 21.2954 50.3938 23.798C48.8549 25.2436 47.6114 26.6425 46.6476 27.8705C48.8083 27.0311 50.9844 26.3161 53.1451 25.6944C54.1865 24.0622 55.3834 22.5545 56.5492 21.342Z" fill="#2B5669"/>
<path d="M69.2331 22.6943C70.4145 19.2591 72.3886 16.2747 75.0622 13.8187C73.1502 16.4301 71.7202 19.4145 70.8964 22.5544C71.5803 22.5078 72.2642 22.4612 72.9482 22.4145C74.2228 17.8912 76.8031 13.8653 80.285 10.741C78.886 10.8809 77.4559 11.0829 75.9637 11.3938C71.9378 12.2021 68.3782 13.3057 65.2539 14.5493C62.3005 17.0829 59.5492 20.7513 58.2746 24.3886C62.0052 23.5648 65.6736 23.0208 69.2331 22.6943Z" fill="#2B5669"/>
<path d="M74.1917 22.3523C78.0622 22.1969 81.7306 22.2591 85.1036 22.4767C86.3782 19.3679 88.3834 16.6788 91.0414 14.5181C89.0984 16.8964 87.6062 19.6632 86.6891 22.5855C87.3575 22.6321 88.0259 22.6943 88.6632 22.7565C89.829 19.1192 91.9274 15.8549 94.6943 13.2124C91.6321 11.487 88.0104 10.6166 83.8601 10.5699C80.1295 12.7927 76.0104 17.5492 74.1917 22.3523Z" fill="#2B5669"/>
<path d="M74.1917 22.3523C78.0622 22.1969 81.7306 22.2591 85.1036 22.4767C86.3782 19.3679 88.3834 16.6788 91.0414 14.5181C89.0984 16.8964 87.6062 19.6632 86.6891 22.5855C87.3575 22.6321 88.0259 22.6943 88.6632 22.7565C89.829 19.1192 91.9274 15.8549 94.6943 13.2124C91.6321 11.487 88.0104 10.6166 83.8601 10.5699C80.1295 12.7927 76.0104 17.5492 74.1917 22.3523Z" fill="url(#paint4_linear_204_69319)"/>
<path d="M109.166 33.1553C105.995 31.7253 102.902 30.5128 99.8549 29.4869C98.829 34.1502 98.5181 39.746 97.3057 44.4248C98.0518 44.7667 98.7979 45.1398 99.544 45.5284C103.383 40.5854 107.145 35.7978 109.399 33.404C109.321 33.3263 109.243 33.2486 109.166 33.1553Z" fill="#07A39C"/>
<path d="M109.166 33.1553C105.995 31.7253 102.902 30.5128 99.8549 29.4869C98.829 34.1502 98.5181 39.746 97.3057 44.4248C98.0518 44.7667 98.7979 45.1398 99.544 45.5284C103.383 40.5854 107.145 35.7978 109.399 33.404C109.321 33.3263 109.243 33.2486 109.166 33.1553Z" fill="url(#paint5_linear_204_69319)"/>
<path d="M79.7098 25.43C75.6528 25.1813 71.7047 25.3056 67.8497 25.7564C66.8394 29.3471 64.2746 38.4714 64.4145 38.9999C64.4767 39.2486 64.8964 39.7771 65.3938 40.3678C68.9533 39.746 72.715 39.4352 76.601 39.5284C76.6166 38.7201 76.6321 37.8963 76.601 37.3367C76.6166 37.2434 78.7461 29.1605 79.7098 25.43Z" fill="#07A39C"/>
<path d="M79.7098 25.43C75.6528 25.1813 71.7047 25.3056 67.8497 25.7564C66.8394 29.3471 64.2746 38.4714 64.4145 38.9999C64.4767 39.2486 64.8964 39.7771 65.3938 40.3678C68.9533 39.746 72.715 39.4352 76.601 39.5284C76.6166 38.7201 76.6321 37.8963 76.601 37.3367C76.6166 37.2434 78.7461 29.1605 79.7098 25.43Z" fill="url(#paint6_linear_204_69319)"/>
<path d="M96.6062 28.4611C95.6425 33.2642 94.7254 38.145 93.7617 42.9326C94.3834 43.1657 95.0207 43.43 95.6425 43.6942C96.4042 38.7823 97.3523 33.8859 98.5026 29.0517C97.8653 28.8497 97.228 28.6476 96.6062 28.4611Z" fill="#07A39C"/>
<path d="M96.6062 28.4611C95.6425 33.2642 94.7254 38.145 93.7617 42.9326C94.3834 43.1657 95.0207 43.43 95.6425 43.6942C96.4042 38.7823 97.3523 33.8859 98.5026 29.0517C97.8653 28.8497 97.228 28.6476 96.6062 28.4611Z" fill="url(#paint7_linear_204_69319)"/>
<path d="M66.4352 25.9429C65.9223 26.0206 65.4249 26.0983 64.9119 26.176C63.9326 29.7356 61.2902 39.404 61.4456 39.9636C61.4922 40.1657 61.772 40.5698 62.1451 41.0206C62.6891 40.8962 63.2332 40.7719 63.7927 40.6631C63.6529 40.2589 63.5129 39.8392 63.3575 39.4351C62.9223 38.2848 65.4715 29.2227 66.4352 25.9429Z" fill="#1A7A3A"/>
<path d="M50.5336 30.2487C48.1554 31.1968 45.8238 32.2849 43.5233 33.4818C42.8082 37.5699 41.6113 43.1036 41.4404 46.2746C41.3937 47.3316 41.9844 48.4352 42.2331 48.8393C44.0673 47.8134 46.1347 46.7253 48.4041 45.6994C48.202 45.0621 47.9222 44.1917 47.6424 43.4145C47.2538 42.3108 49.4766 34.0414 50.5336 30.2487Z" fill="#1A7A3A"/>
<path d="M82.5699 25.6631C82.057 25.6165 81.5596 25.5698 81.0466 25.5232C80.0363 29.4558 78.0777 37.0724 78.0466 37.6009C78 38.0983 78.0311 38.86 78.0777 39.6061C78.7461 39.6372 79.4145 39.6994 80.0829 39.7615C80.0673 39.0154 80.0518 38.0517 80.1295 37.2745C80.2539 36.0154 81.715 29.3937 82.5699 25.6631Z" fill="#07A39C"/>
<path d="M82.5699 25.6631C82.057 25.6165 81.5596 25.5698 81.0466 25.5232C80.0363 29.4558 78.0777 37.0724 78.0466 37.6009C78 38.0983 78.0311 38.86 78.0777 39.6061C78.7461 39.6372 79.4145 39.6994 80.0829 39.7615C80.0673 39.0154 80.0518 38.0517 80.1295 37.2745C80.2539 36.0154 81.715 29.3937 82.5699 25.6631Z" fill="url(#paint8_linear_204_69319)"/>
<path d="M63.4663 26.4403C60.6684 26.9688 57.9171 27.6838 55.228 28.5543C54.2642 31.974 51.5907 41.4869 51.7306 42.031C51.8083 42.3263 52.4145 43.0569 53.0518 43.7875C55.4456 42.8859 57.9948 42.0621 60.6839 41.3781C60.5751 41.0517 60.4663 40.7253 60.3575 40.4144C59.9223 39.2175 62.5337 29.7046 63.4663 26.4403Z" fill="#1A7A3A"/>
<path d="M84.0311 25.8186C83.1917 30.1243 81.8083 37.3523 81.8083 37.8342C81.8083 38.4559 81.9171 39.2797 82.0414 39.9637C85.1969 40.3834 88.399 41.0829 91.6477 42.1709C93.1399 37.5544 94.3057 32.829 95.1295 28.0414C91.3368 27 87.6373 26.2694 84.0311 25.8186Z" fill="#07A39C"/>
<path d="M84.0311 25.8186C83.1917 30.1243 81.8083 37.3523 81.8083 37.8342C81.8083 38.4559 81.9171 39.2797 82.0414 39.9637C85.1969 40.3834 88.399 41.0829 91.6477 42.1709C93.1399 37.5544 94.3057 32.829 95.1295 28.0414C91.3368 27 87.6373 26.2694 84.0311 25.8186Z" fill="url(#paint9_linear_204_69319)"/>
<path d="M53.7047 29.0518C53.1606 29.2383 52.6321 29.4404 52.0881 29.6424C51.0311 33.5129 48.6062 42.4352 48.7461 42.9792C48.8238 43.3056 49.5078 44.145 50.2072 44.9378C50.5803 44.7823 50.9689 44.6113 51.3575 44.4559C51.171 43.8652 50.9223 43.1191 50.6736 42.4663C50.2228 41.316 52.7254 32.4248 53.7047 29.0518Z" fill="#1A7A3A"/>
<path d="M38.2383 36.4818C38.1917 36.5285 38.1606 36.5751 38.1295 36.6217C38.7824 42.7305 36.0777 47.3471 34.43 50.1606C34.0725 50.7668 33.6062 51.5595 33.4663 51.9171C33.5285 52.8031 34.0725 53.7202 34.2901 54.0155C34.8497 53.5958 35.6114 53.0362 36.5596 52.3834C39.1554 47.3782 40.9119 37.8808 41.4559 34.5854C40.3834 35.1917 39.3109 35.829 38.2383 36.4818Z" fill="#1A7A3A"/>
<path d="M39.1865 50.6269L39 50.7823C39.5596 50.4404 40.1503 50.0673 40.772 49.6943L39.9482 46.3523L39.1865 50.6269Z" fill="#1A7A3A"/>
<path d="M49.6476 61.1502C42.8238 60.9948 41.3626 61.6165 41.2849 62.0673C41.2072 62.5336 43.0414 64.4455 44.658 64.6787C46.2746 64.8963 50.0362 61.1502 49.6476 61.1502Z" fill="white"/>
<path d="M49.2279 93.6372C49.6787 94.0258 60.9171 94.6942 67.2746 88.0103C67.2746 88.0103 59.4248 90.9015 48.9015 90.9015C48.886 90.917 48.7772 93.2486 49.2279 93.6372Z" fill="white"/>
<path d="M49.2279 93.6372C49.6787 94.0258 60.9171 94.6942 67.2746 88.0103C67.2746 88.0103 59.4248 90.9015 48.9015 90.9015C48.886 90.917 48.7772 93.2486 49.2279 93.6372Z" fill="url(#paint10_linear_204_69319)"/>
<path d="M70.8808 54.4973C70.2901 53.8134 64.9274 55.259 59.2228 58.7564C57.886 59.5802 66.2953 61.3989 68.2539 59.4404C70.1969 57.4818 71.4715 55.1813 70.8808 54.4973Z" fill="white"/>
<path d="M116.782 36.0932C116.378 35.7824 115.912 35.6425 115.461 35.5958C114.233 35.6425 112.01 35.9689 110.471 37.7409C108.249 40.3057 100.896 50.4404 100.228 53.114C99.5596 55.7875 99.4507 61.8031 100.119 66.4818C100.788 71.1917 102.218 73.8497 105.933 73.3523C107.736 72.6995 109.073 71.7824 109.414 71.5181L109.85 71.114C113.845 67.2746 121.29 60.1243 121.927 55.8497C122.642 51.1554 118.399 37.8653 116.782 36.0932ZM114.047 49.0881C113.798 49.1969 113.409 49.6321 112.943 50.2383C116.425 55.8808 112.943 61.1191 112.943 61.1191C113.891 56.9223 111.855 54.4974 110.72 53.5181C109.927 54.7616 109.119 56.0829 108.42 57.2487C109.43 59.1917 110.394 62.7513 105.497 64.943C105.28 65.3938 105.109 65.658 105.109 65.658C106.694 66.7461 112.632 63.2331 112.632 63.2331C112.632 63.2331 106.788 68.658 104.689 68.5803C102.606 68.5026 101.596 65.829 101.596 65.829C105.016 61.8963 103.43 59.1451 103.352 58.3989C103.352 58.3989 111.855 39.9171 115.383 43.6943C117.606 46.088 118.943 53.7824 118.943 53.7824C117.389 50.8756 115.477 48.4197 114.047 49.0881Z" fill="#BB7261"/>
<path d="M116.782 36.0932C116.378 35.7824 115.912 35.6425 115.461 35.5958C114.233 35.6425 112.01 35.9689 110.471 37.7409C108.249 40.3057 100.896 50.4404 100.228 53.114C99.5596 55.7875 99.4507 61.8031 100.119 66.4818C100.788 71.1917 102.218 73.8497 105.933 73.3523C107.736 72.6995 109.073 71.7824 109.414 71.5181L109.85 71.114C113.845 67.2746 121.29 60.1243 121.927 55.8497C122.642 51.1554 118.399 37.8653 116.782 36.0932ZM114.047 49.0881C113.798 49.1969 113.409 49.6321 112.943 50.2383C116.425 55.8808 112.943 61.1191 112.943 61.1191C113.891 56.9223 111.855 54.4974 110.72 53.5181C109.927 54.7616 109.119 56.0829 108.42 57.2487C109.43 59.1917 110.394 62.7513 105.497 64.943C105.28 65.3938 105.109 65.658 105.109 65.658C106.694 66.7461 112.632 63.2331 112.632 63.2331C112.632 63.2331 106.788 68.658 104.689 68.5803C102.606 68.5026 101.596 65.829 101.596 65.829C105.016 61.8963 103.43 59.1451 103.352 58.3989C103.352 58.3989 111.855 39.9171 115.383 43.6943C117.606 46.088 118.943 53.7824 118.943 53.7824C117.389 50.8756 115.477 48.4197 114.047 49.0881Z" fill="url(#paint11_linear_204_69319)"/>
<path d="M54.5751 67.3368C56.8445 65.9378 57.5751 64.5544 60.0621 64.6943L56.3937 60.3731C56.0051 60.3109 54.3108 59.9689 53.1761 58.741C52.8808 59.5182 52.4611 60.4819 51.9481 61.4923C51.544 63.1244 50.8756 65.4094 49.772 67.8031C49.772 67.8031 50.9533 69.5596 54.5751 67.3368Z" fill="#BB7261"/>
<path d="M41.456 73.6632L44.658 71.8134L47.2072 67.057C46.6943 67.3368 46.1658 67.5388 45.6062 67.6476C41.8912 68.3316 38.9378 64.772 38.6736 64.4456L38.7047 65.7513C38.7513 67.4611 38.9534 70.3057 39.2642 71.3005C39.4041 71.7357 40.4145 72.8083 41.456 73.6632Z" fill="#BB7261"/>
<path d="M48.2798 64.5233C44.2072 67.3679 41.5958 64.9741 41.5958 64.9741C41.5958 64.9741 42.2021 66.8083 44.4404 66.8705C46.6787 66.9326 48.2798 64.5233 48.2798 64.5233Z" fill="#BB7261"/>
<path d="M75.2798 54.9948C69.3264 63.5751 61.9119 61.8963 61.9119 61.8963C70.772 66.4973 75.7306 55.2124 75.2798 54.9948Z" fill="#BB7261"/>
<path d="M87.2021 54.6529C80.5181 43.0726 73.943 39.171 65.9223 44.9689C57.8549 50.798 51.6684 53.4404 51.6684 53.4404C46.4456 53.3005 43.9585 53.0518 41.1606 53.3472C40.4922 53.4249 39.8705 53.5026 39.3109 53.6114C37.399 53.9534 36.1243 54.8394 35.2694 55.8809L34.601 56.8912C34.4922 57.1088 34.3834 57.3109 34.2901 57.5285C34.0725 58.0881 33.8238 59.0208 33.9948 60.0467C34.1347 60.8549 35.6425 62.3627 37.0725 63.3731C37.0259 62.0518 37.3368 59.9689 39.4818 59.456C42.715 58.6788 48.3886 60.4819 50.5026 59.456C51.4819 58.9897 52.0259 57.7151 52.259 57.0467C52.1658 56.6581 52.1036 56.2384 52.1192 55.7565C52.1192 55.7565 54.1399 58.1192 56.5492 58.1347C60.5751 58.1658 69.0932 49.8187 73.0103 49.57C76.9274 49.3213 81.9482 54.4197 81.9482 54.4197L77.9534 54.4974C77.9534 54.4974 74.1295 63.7772 66.4663 64.0259C64.6321 64.0881 62.9689 63.7617 61.5699 63.2798L64.4922 65.829C64.9896 66.0467 65.4249 66.2643 65.8135 66.4974C68.5958 67.6166 71.285 69.0311 73.3989 70.9119C71.6425 70.5233 69.9171 70.1658 68.2694 69.886V69.9016C68.0984 71.0207 66.9793 72.6373 66.9793 72.6373C66.9793 72.6373 67.1347 70.7254 65.8912 69.4974C64.6787 68.285 61.4922 66.855 59.4093 67.1969C58.0881 67.4145 54.7772 70.0726 53.3782 70.4145C51.9793 70.741 50.6425 69.7461 49.5855 70.0881C49.228 70.1969 48.7772 70.4456 48.3575 70.7876C48.373 70.7876 48.373 70.7876 48.373 70.7876C48.373 70.7876 45.7461 72.7928 47.7513 74.5026C47.7513 74.5026 47.9223 71.7513 52.0881 76.0881C52.0881 76.0881 53.4559 76.2435 54.5129 75.7928C54.5129 75.7928 57.6839 72.4042 59.3627 71.456C61.9585 69.9638 63.9948 71.7513 63.9948 71.7513C63.9948 71.7513 59.6891 75.3886 54.3419 77.0518C54.2176 77.1762 53.4715 81.7772 53.4715 81.7772C53.4715 81.7772 52.7409 79.4456 52.2901 77.2695C51.9637 77.0829 46.8186 76.8653 45.6373 74.4093C44.6114 75.1399 43.1969 76.3835 42.0466 78.3265C39.9948 82.2902 40.0881 84.8705 40.2591 85.8964L45.3109 90.1399C43.5855 91.2591 42.4197 92.3472 41.7513 93.5285C42.2021 96.9948 46.1036 99.2954 46.1347 99.3265L46.5544 99.5752L46.8653 99.9638C49.5233 103.383 51.0466 106.508 51.7616 108.233C54.0155 108.684 59.3938 109.399 65.285 107.456C65.6425 107.269 66.3264 106.741 67.2124 105.995C75.0777 98.3006 77.4715 87.0467 77.4715 87.0467L78.8705 89.5182C78.8705 89.5182 82.4767 81.9638 81.5751 78.7617C80.3161 74.3316 74.5647 71.4094 74.5647 71.4094C76.1502 70.0726 76.8808 69.2332 76.8808 69.2332L82.7565 68.2384L79.6632 66.5752C83.7824 63.3109 86.7046 59.5182 87.2021 54.6529ZM59.0829 102.42C57 103.415 51.2331 100.663 51.2331 100.663C51.2331 100.663 57.3264 100.834 62.5958 98.5803C62.5958 98.5803 61.1658 101.409 59.0829 102.42ZM75.0311 77.6892C77.6269 81.6995 75.1088 86.7047 75.1088 86.7047C75.1088 85.1192 74.0207 83.7824 74.0207 83.7824C74.0207 83.7824 69.0155 92.9689 58.3989 94.8964C50.2383 96.3731 45.5285 94.228 45.5285 94.228C43.9741 93.2487 47.5337 90.684 47.5337 90.684L45.3575 87.8705C54.5751 90.9638 72.7772 85.7876 75.0311 77.6892Z" fill="#BB7261"/>
<path d="M87.2021 54.6529C80.5181 43.0726 73.943 39.171 65.9223 44.9689C57.8549 50.798 51.6684 53.4404 51.6684 53.4404C46.4456 53.3005 43.9585 53.0518 41.1606 53.3472C40.4922 53.4249 39.8705 53.5026 39.3109 53.6114C37.399 53.9534 36.1243 54.8394 35.2694 55.8809L34.601 56.8912C34.4922 57.1088 34.3834 57.3109 34.2901 57.5285C34.0725 58.0881 33.8238 59.0208 33.9948 60.0467C34.1347 60.8549 35.6425 62.3627 37.0725 63.3731C37.0259 62.0518 37.3368 59.9689 39.4818 59.456C42.715 58.6788 48.3886 60.4819 50.5026 59.456C51.4819 58.9897 52.0259 57.7151 52.259 57.0467C52.1658 56.6581 52.1036 56.2384 52.1192 55.7565C52.1192 55.7565 54.1399 58.1192 56.5492 58.1347C60.5751 58.1658 69.0932 49.8187 73.0103 49.57C76.9274 49.3213 81.9482 54.4197 81.9482 54.4197L77.9534 54.4974C77.9534 54.4974 74.1295 63.7772 66.4663 64.0259C64.6321 64.0881 62.9689 63.7617 61.5699 63.2798L64.4922 65.829C64.9896 66.0467 65.4249 66.2643 65.8135 66.4974C68.5958 67.6166 71.285 69.0311 73.3989 70.9119C71.6425 70.5233 69.9171 70.1658 68.2694 69.886V69.9016C68.0984 71.0207 66.9793 72.6373 66.9793 72.6373C66.9793 72.6373 67.1347 70.7254 65.8912 69.4974C64.6787 68.285 61.4922 66.855 59.4093 67.1969C58.0881 67.4145 54.7772 70.0726 53.3782 70.4145C51.9793 70.741 50.6425 69.7461 49.5855 70.0881C49.228 70.1969 48.7772 70.4456 48.3575 70.7876C48.373 70.7876 48.373 70.7876 48.373 70.7876C48.373 70.7876 45.7461 72.7928 47.7513 74.5026C47.7513 74.5026 47.9223 71.7513 52.0881 76.0881C52.0881 76.0881 53.4559 76.2435 54.5129 75.7928C54.5129 75.7928 57.6839 72.4042 59.3627 71.456C61.9585 69.9638 63.9948 71.7513 63.9948 71.7513C63.9948 71.7513 59.6891 75.3886 54.3419 77.0518C54.2176 77.1762 53.4715 81.7772 53.4715 81.7772C53.4715 81.7772 52.7409 79.4456 52.2901 77.2695C51.9637 77.0829 46.8186 76.8653 45.6373 74.4093C44.6114 75.1399 43.1969 76.3835 42.0466 78.3265C39.9948 82.2902 40.0881 84.8705 40.2591 85.8964L45.3109 90.1399C43.5855 91.2591 42.4197 92.3472 41.7513 93.5285C42.2021 96.9948 46.1036 99.2954 46.1347 99.3265L46.5544 99.5752L46.8653 99.9638C49.5233 103.383 51.0466 106.508 51.7616 108.233C54.0155 108.684 59.3938 109.399 65.285 107.456C65.6425 107.269 66.3264 106.741 67.2124 105.995C75.0777 98.3006 77.4715 87.0467 77.4715 87.0467L78.8705 89.5182C78.8705 89.5182 82.4767 81.9638 81.5751 78.7617C80.3161 74.3316 74.5647 71.4094 74.5647 71.4094C76.1502 70.0726 76.8808 69.2332 76.8808 69.2332L82.7565 68.2384L79.6632 66.5752C83.7824 63.3109 86.7046 59.5182 87.2021 54.6529ZM59.0829 102.42C57 103.415 51.2331 100.663 51.2331 100.663C51.2331 100.663 57.3264 100.834 62.5958 98.5803C62.5958 98.5803 61.1658 101.409 59.0829 102.42ZM75.0311 77.6892C77.6269 81.6995 75.1088 86.7047 75.1088 86.7047C75.1088 85.1192 74.0207 83.7824 74.0207 83.7824C74.0207 83.7824 69.0155 92.9689 58.3989 94.8964C50.2383 96.3731 45.5285 94.228 45.5285 94.228C43.9741 93.2487 47.5337 90.684 47.5337 90.684L45.3575 87.8705C54.5751 90.9638 72.7772 85.7876 75.0311 77.6892Z" fill="url(#paint12_linear_204_69319)"/>
<path d="M88.43 45.8549L85.7564 45.6373L88.8808 54.3265L87.0932 60.6684L83.9689 66.4042L90.6528 68.2384C90.6528 68.2384 92.9844 55.0881 92.7668 53.8757C92.5492 52.6477 88.43 45.8549 88.43 45.8549Z" fill="url(#paint13_linear_204_69319)"/>
<path d="M78.9637 71.4249L86.316 76.9431C88.0725 74.9379 89.5492 72.4819 89.5492 72.4819C89.5492 72.4819 87.0932 70.741 85.2124 70.5855C82.5233 70.3679 78.9637 71.4249 78.9637 71.4249Z" fill="url(#paint14_linear_204_69319)"/>
<path d="M77.1762 41.7357C71.0518 40.2901 64.1503 43.399 64.1503 43.399C64.1503 43.399 54.6839 52.7565 51.2332 52.7565C47.7824 52.7565 38.8756 52.0881 38.8756 52.0881C38.8756 52.0881 25.1813 57.886 37.8808 65.3471C37.601 64.6321 36.544 59.3316 42.7772 59.4404C42.7772 59.4404 49.57 60.6684 50.7979 60C52.0259 59.3316 52.8031 57.544 52.8031 57.544C52.8031 57.544 55.4922 58.8497 57.2643 58.3212C61.2746 57.1243 66.171 52.5233 73.1969 47.1762C79.7565 42.171 85.6787 50.7357 85.6787 50.7357C85.6787 50.7357 83.3005 43.1813 77.1762 41.7357Z" fill="#F9C19C"/>
<path d="M77.1762 41.7357C71.0518 40.2901 64.1503 43.399 64.1503 43.399C64.1503 43.399 54.6839 52.7565 51.2332 52.7565C47.7824 52.7565 38.8756 52.0881 38.8756 52.0881C38.8756 52.0881 25.1813 57.886 37.8808 65.3471C37.601 64.6321 36.544 59.3316 42.7772 59.4404C42.7772 59.4404 49.57 60.6684 50.7979 60C52.0259 59.3316 52.8031 57.544 52.8031 57.544C52.8031 57.544 55.4922 58.8497 57.2643 58.3212C61.2746 57.1243 66.171 52.5233 73.1969 47.1762C79.7565 42.171 85.6787 50.7357 85.6787 50.7357C85.6787 50.7357 83.3005 43.1813 77.1762 41.7357Z" fill="url(#paint15_linear_204_69319)"/>
<path d="M41.7668 74.2693C42.886 73.9584 44.0985 73.29 45.1088 71.9377C46.1969 70.461 47.0674 68.2848 47.2228 68.0983C47.6425 67.6009 47.5492 66.6838 47.5492 66.6838L44.2073 67.4299C44.2073 67.4299 41.0363 66.5906 40.1192 65.2538C39.2021 63.917 38.285 62.9999 38.285 62.9999L37.8653 64.1657C37.8653 64.1657 37.943 70.1035 39.2021 71.5957C39.513 71.9532 41.0052 74.4714 41.7668 74.2693Z" fill="#F9C19C"/>
<path d="M41.7668 74.2693C42.886 73.9584 44.0985 73.29 45.1088 71.9377C46.1969 70.461 47.0674 68.2848 47.2228 68.0983C47.6425 67.6009 47.5492 66.6838 47.5492 66.6838L44.2073 67.4299C44.2073 67.4299 41.0363 66.5906 40.1192 65.2538C39.2021 63.917 38.285 62.9999 38.285 62.9999L37.8653 64.1657C37.8653 64.1657 37.943 70.1035 39.2021 71.5957C39.513 71.9532 41.0052 74.4714 41.7668 74.2693Z" fill="url(#paint16_linear_204_69319)"/>
<path d="M56.4871 66.4041C57.1399 65.7046 55.4922 61.1346 55.4922 61.1346L53.1606 58.4611L51.4974 60.9637L49.1658 68.487C49.1347 68.5025 53.5648 69.5906 56.4871 66.4041Z" fill="#F9C19C"/>
<path d="M56.4871 66.4041C57.1399 65.7046 55.4922 61.1346 55.4922 61.1346L53.1606 58.4611L51.4974 60.9637L49.1658 68.487C49.1347 68.5025 53.5648 69.5906 56.4871 66.4041Z" fill="url(#paint17_linear_204_69319)"/>
<path d="M45.9327 73.259C45.9948 74.3781 48.4353 74.9844 48.4353 74.9844C48.4353 74.9844 48.5596 75.0932 48.7928 75.2331C48.8549 74.8289 48.9638 73.6631 49.4301 73.9274C51.0933 74.8445 51.9637 74.7356 53.1917 74.5958C54.2332 74.4714 55.6166 74.3471 57.2021 73.259C58.1503 72.2175 58.6166 71.6113 60.4663 70.1968C62.9845 68.2693 65.7513 69.1398 65.7513 69.1398C65.7513 69.1398 64.3524 66.8548 61.2902 66.6372C58.228 66.4196 54.5441 69.373 54.5441 69.373C54.5441 69.373 50.3627 69.0932 49.1347 69.5439C47.9378 69.9792 45.886 72.1398 45.9327 73.259Z" fill="#F9C19C"/>
<path d="M45.9327 73.259C45.9948 74.3781 48.4353 74.9844 48.4353 74.9844C48.4353 74.9844 48.5596 75.0932 48.7928 75.2331C48.8549 74.8289 48.9638 73.6631 49.4301 73.9274C51.0933 74.8445 51.9637 74.7356 53.1917 74.5958C54.2332 74.4714 55.6166 74.3471 57.2021 73.259C58.1503 72.2175 58.6166 71.6113 60.4663 70.1968C62.9845 68.2693 65.7513 69.1398 65.7513 69.1398C65.7513 69.1398 64.3524 66.8548 61.2902 66.6372C58.228 66.4196 54.5441 69.373 54.5441 69.373C54.5441 69.373 50.3627 69.0932 49.1347 69.5439C47.9378 69.9792 45.886 72.1398 45.9327 73.259Z" fill="url(#paint18_linear_204_69319)"/>
<path d="M69.9482 71.5026C69.9482 71.5026 65.487 75.9326 56.0207 77.9378C56.0207 77.9378 54.373 82.7564 53.7979 83.5026C53.2072 84.2487 52.2746 77.2694 52.2746 77.2694L49.3057 76.1036L45.6062 73.8186C45.6062 73.8186 41.8135 75.373 40.5389 80.5026C39.2642 85.6321 40.2591 85.8963 40.2591 85.8963C40.2591 85.8963 49.943 91.3523 62.0207 87.6373C74.4559 83.8135 74.9689 77.829 74.9689 77.829C74.9689 77.829 76.1813 72.544 69.9482 71.5026Z" fill="#F9C19C"/>
<path d="M69.9482 71.5026C69.9482 71.5026 65.487 75.9326 56.0207 77.9378C56.0207 77.9378 54.373 82.7564 53.7979 83.5026C53.2072 84.2487 52.2746 77.2694 52.2746 77.2694L49.3057 76.1036L45.6062 73.8186C45.6062 73.8186 41.8135 75.373 40.5389 80.5026C39.2642 85.6321 40.2591 85.8963 40.2591 85.8963C40.2591 85.8963 49.943 91.3523 62.0207 87.6373C74.4559 83.8135 74.9689 77.829 74.9689 77.829C74.9689 77.829 76.1813 72.544 69.9482 71.5026Z" fill="url(#paint19_linear_204_69319)"/>
<path d="M50.0518 95.145C41.4404 94.3989 43.9586 90.886 43.9586 90.886L40.8653 90.9637C40.8653 90.9637 41.2228 103.01 56.9067 100.073C72.4974 97.1502 73.1192 87.202 73.1192 87.202C67.4301 92.8134 58.6632 95.9067 50.0518 95.145Z" fill="#F9C19C"/>
<path d="M50.0518 95.145C41.4404 94.3989 43.9586 90.886 43.9586 90.886L40.8653 90.9637C40.8653 90.9637 41.2228 103.01 56.9067 100.073C72.4974 97.1502 73.1192 87.202 73.1192 87.202C67.4301 92.8134 58.6632 95.9067 50.0518 95.145Z" fill="url(#paint20_linear_204_69319)"/>
<path d="M64.3679 102.668C63.6995 102.249 52.9275 102.73 51.6684 103.554C50.4094 104.394 51.7461 108.217 51.7461 108.217C53.5337 109.601 63.9171 109.181 65.2695 107.44C66.6218 105.715 65.0363 103.088 64.3679 102.668Z" fill="url(#paint21_linear_204_69319)"/>
<path d="M61.5389 63.2953L63.3575 65.9067C63.3575 65.9067 72.6062 68.9689 74.7202 67.8031C77.7202 66.1399 77.5026 60.7927 77.5026 60.7927C68.2694 65.7979 61.5389 63.2953 61.5389 63.2953Z" fill="#F9C19C"/>
<path d="M117.839 35.5025C117.839 35.5025 113.611 34.3834 112.601 34.9429C111.606 35.5025 104.021 44.3004 102.016 49.7564C100.01 55.2124 102.016 56.5492 102.016 56.5492L111.373 45.0777C111.373 45.0777 113.814 41.7979 116.161 44.86C117.233 46.259 119.192 51.9326 119.161 55.3367C119.13 60.0621 115.71 65.3626 115.71 65.3626C115.71 65.3626 120.839 62.7979 122.176 57.4507C123.513 52.1036 117.839 35.5025 117.839 35.5025Z" fill="#F9C19C"/>
<path d="M117.839 35.5025C117.839 35.5025 113.611 34.3834 112.601 34.9429C111.606 35.5025 104.021 44.3004 102.016 49.7564C100.01 55.2124 102.016 56.5492 102.016 56.5492L111.373 45.0777C111.373 45.0777 113.814 41.7979 116.161 44.86C117.233 46.259 119.192 51.9326 119.161 55.3367C119.13 60.0621 115.71 65.3626 115.71 65.3626C115.71 65.3626 120.839 62.7979 122.176 57.4507C123.513 52.1036 117.839 35.5025 117.839 35.5025Z" fill="url(#paint22_linear_204_69319)"/>
<path d="M99.0156 46.3678C90.6684 36.3108 76.2902 35.7046 66.1399 36.8082C72.7306 32.6113 83.7513 27.8549 99.513 28.3367C99.513 28.3367 65.3782 15.9792 36.7461 35.86C36.7461 35.86 38.9689 36.746 35.8601 43.9896C32.7357 51.2331 32.1917 53.5647 32.1917 53.5647L33.1865 54.2331L34.9741 54.9015C34.9741 54.9015 41.2694 50.658 57.2332 43.5232C72.7927 39.2486 86.6736 40.3678 99.0156 46.3678Z" fill="#78CD3C"/>
<path d="M67.4301 24.4663C67.4301 24.4663 89.1451 6.09325 104.021 22.8031C104.021 22.8031 100.85 13.7875 93.8238 10.772C86.8135 7.77201 70.601 8.09843 60.7461 13.943C50.8912 19.7876 45.715 26.9689 45.715 26.9689L45.886 29.4715L67.4301 24.4663Z" fill="#07A49B"/>
<path d="M67.4301 24.4663C67.4301 24.4663 89.1451 6.09325 104.021 22.8031C104.021 22.8031 100.85 13.7875 93.8238 10.772C86.8135 7.77201 70.601 8.09843 60.7461 13.943C50.8912 19.7876 45.715 26.9689 45.715 26.9689L45.886 29.4715L67.4301 24.4663Z" fill="url(#paint23_linear_204_69319)"/>
<path d="M69.4974 87.1866C69.0466 86.3005 69.0466 86.3005 69.0466 86.3005L61.0259 88.5233C61.0259 88.5233 60.8394 88.741 60.4818 89.0985C59.0829 90.513 55.1192 94.0726 50.658 94.4301C45.0933 94.8809 57.1243 95.6581 62.9067 92.4249C68.7202 89.1917 69.9482 88.0726 69.4974 87.1866Z" fill="#A7AABD"/>
<path d="M69.4974 87.1866C69.0466 86.3005 69.0466 86.3005 69.0466 86.3005L61.0259 88.5233C61.0259 88.5233 60.8394 88.741 60.4818 89.0985C59.0829 90.513 55.1192 94.0726 50.658 94.4301C45.0933 94.8809 57.1243 95.6581 62.9067 92.4249C68.7202 89.1917 69.9482 88.0726 69.4974 87.1866Z" fill="url(#paint24_linear_204_69319)"/>
<path d="M60.0777 59.7202L62.829 60.9793C62.829 60.9793 63.9948 61.3057 67.5078 60.6528C71.0207 59.9844 71.5181 54.5596 71.5181 54.5596C67.943 60.7306 60.0777 59.7202 60.0777 59.7202Z" fill="#C7FB41"/>
<path d="M41.3627 63.3263C41.3627 63.3263 42.9482 65.0828 44.8756 65.6579C46.8031 66.233 49.7254 61.5698 49.7254 61.5698C45.373 64.9118 41.3627 63.3263 41.3627 63.3263Z" fill="#C7FB41"/>
<path d="M86.9844 91.803C91.1658 87.9636 96.1709 82.1191 96.1709 82.1191L100.01 75.7771L100.508 73.1035L99.3419 68.9222L96.8393 52.7097C96.8393 52.7097 94.5077 63.9014 94.8342 74.4248C94.8342 74.4248 89.2072 85.3988 78.2953 96.9792C78.2953 96.9792 82.8031 95.6424 86.9844 91.803Z" fill="#C7FB41"/>
<path d="M97.8964 84.9326L97.8808 82.9585L93.9637 85.8031C93.9793 86.6114 94.0259 87.4196 94.057 88.2124C95.285 87.0466 96.5596 85.943 97.8964 84.9326Z" fill="#C7FB41"/>
<path d="M110.145 72.8082C115.15 70.6943 116.72 65.0051 116.72 65.0051C106.912 74.4714 100.57 69.5751 100.57 69.5751L102.902 75.9171C102.917 75.9326 105.14 74.9378 110.145 72.8082Z" fill="#C7FB41"/>
<path d="M59.0829 39.7616C51.4352 41.3471 38.8601 46.4144 33.4663 51.9015C33.4663 51.9015 32.4093 53.5336 33.6218 54.7616C33.6218 54.7616 46.4611 44.5958 67.0881 39.4196C67.1036 39.4196 64.0104 38.7357 59.0829 39.7616Z" fill="#07A39C"/>
<path d="M59.0829 39.7616C51.4352 41.3471 38.8601 46.4144 33.4663 51.9015C33.4663 51.9015 32.4093 53.5336 33.6218 54.7616C33.6218 54.7616 46.4611 44.5958 67.0881 39.4196C67.1036 39.4196 64.0104 38.7357 59.0829 39.7616Z" fill="url(#paint25_linear_204_69319)"/>
<path d="M37.8652 35.9533C37.8652 35.9533 38.1917 42.7461 35.4093 47.316C35.4093 47.316 38.1917 44.316 40.8653 38.5181C40.8653 38.5181 57.2331 25.8186 89.316 25.6476C89.316 25.6476 60.4197 17.5181 37.8652 35.9533Z" fill="white"/>
<path d="M37.8652 35.9533C37.8652 35.9533 38.1917 42.7461 35.4093 47.316C35.4093 47.316 38.1917 44.316 40.8653 38.5181C40.8653 38.5181 57.2331 25.8186 89.316 25.6476C89.316 25.6476 60.4197 17.5181 37.8652 35.9533Z" fill="url(#paint26_linear_204_69319)"/>
<path d="M47.7823 25.4766C47.7823 25.4766 72.6217 9.60615 92.7824 11.7823C92.7824 11.7823 69.1554 2.86005 47.7823 25.4766Z" fill="white"/>
<path d="M47.7823 25.4766C47.7823 25.4766 72.6217 9.60615 92.7824 11.7823C92.7824 11.7823 69.1554 2.86005 47.7823 25.4766Z" fill="url(#paint27_linear_204_69319)"/>
<path d="M51.8394 68.1917C52.7254 67.8186 52.5699 61.8497 52.5699 61.8497L49.57 68.1451C49.5544 68.1295 50.8912 68.5803 51.8394 68.1917Z" fill="white"/>
<path d="M51.8394 68.1917C52.7254 67.8186 52.5699 61.8497 52.5699 61.8497L49.57 68.1451C49.5544 68.1295 50.8912 68.5803 51.8394 68.1917Z" fill="url(#paint28_linear_204_69319)"/>
<path d="M46.8808 73.43C46.8808 73.43 47.3316 71.9844 49.772 72.4818C52.2279 72.9792 52.9119 73.0103 54.1865 72.2176C55.3523 71.487 56.9067 69.8082 56.9067 69.8082C56.9067 69.8082 53.5647 70.7564 52.6787 70.5854C51.7927 70.4144 49.6787 69.8549 49.6787 69.8549C49.6787 69.8549 45.8238 70.4766 46.8808 73.43Z" fill="white"/>
<path d="M46.8808 73.43C46.8808 73.43 47.3316 71.9844 49.772 72.4818C52.2279 72.9792 52.9119 73.0103 54.1865 72.2176C55.3523 71.487 56.9067 69.8082 56.9067 69.8082C56.9067 69.8082 53.5647 70.7564 52.6787 70.5854C51.7927 70.4144 49.6787 69.8549 49.6787 69.8549C49.6787 69.8549 45.8238 70.4766 46.8808 73.43Z" fill="url(#paint29_linear_204_69319)"/>
<path d="M40.8653 79.1969C38.1917 84.1243 39.9482 86.1295 39.9482 86.1295C42.0311 79.1968 47.3316 75.373 47.3316 75.373L45.9326 73.259C45.9326 73.259 43.5389 74.2694 40.8653 79.1969Z" fill="white"/>
<path d="M40.8653 79.1969C38.1917 84.1243 39.9482 86.1295 39.9482 86.1295C42.0311 79.1968 47.3316 75.373 47.3316 75.373L45.9326 73.259C45.9326 73.259 43.5389 74.2694 40.8653 79.1969Z" fill="url(#paint30_linear_204_69319)"/>
<path d="M46.8808 95.9533C46.8808 95.9533 46.43 98.0828 50.9378 98.4248C56.4715 98.8445 60.6995 95.4714 60.6995 95.4714C53.5648 97.259 46.8808 95.9533 46.8808 95.9533Z" fill="url(#paint31_linear_204_69319)"/>
<path d="M48.4974 86.9222C57.3886 87.9015 64.8963 84.4818 64.2901 83.9844C63.6839 83.487 60.5906 83.2849 60.5906 83.2849C52.7875 85.8497 48.4974 86.9222 48.4974 86.9222Z" fill="url(#paint32_linear_204_69319)"/>
<path d="M56.2384 55.2123C57.2332 55.3833 61.4145 52.0413 63.6684 48.8704L54.0622 54.1398C54.0622 54.1242 55.2435 55.0413 56.2384 55.2123Z" fill="white"/>
<path d="M56.2384 55.2123C57.2332 55.3833 61.4145 52.0413 63.6684 48.8704L54.0622 54.1398C54.0622 54.1242 55.2435 55.0413 56.2384 55.2123Z" fill="url(#paint33_linear_204_69319)"/>
<path d="M37.0725 63.373C37.0725 63.373 36.0777 61.4611 36.3109 59.3471C36.5285 57.2331 38.9845 53.2228 38.9845 53.2228C38.9845 53.2228 36.7616 51.886 34.9741 54.886C33.1865 57.886 33.7461 62.2383 33.7461 62.2383C33.7461 62.2383 35.3782 63.3886 37.0725 63.373Z" fill="white"/>
<path d="M37.0725 63.373C37.0725 63.373 36.0777 61.4611 36.3109 59.3471C36.5285 57.2331 38.9845 53.2228 38.9845 53.2228C38.9845 53.2228 36.7616 51.886 34.9741 54.886C33.1865 57.886 33.7461 62.2383 33.7461 62.2383C33.7461 62.2383 35.3782 63.3886 37.0725 63.373Z" fill="url(#paint34_linear_204_69319)"/>
<path d="M117.839 35.8289C115.834 33.8238 114.389 34.601 114.389 34.601L110.269 35.8289L104.145 46.1813C104.145 46.1813 110.938 39.715 112.275 39.0466C113.611 38.3782 115.399 38.0051 115.943 38.1606C117.171 38.487 122.845 52.088 122.845 52.088C122.845 52.088 120.808 38.7979 117.839 35.8289Z" fill="white"/>
<path d="M117.839 35.8289C115.834 33.8238 114.389 34.601 114.389 34.601L110.269 35.8289L104.145 46.1813C104.145 46.1813 110.938 39.715 112.275 39.0466C113.611 38.3782 115.399 38.0051 115.943 38.1606C117.171 38.487 122.845 52.088 122.845 52.088C122.845 52.088 120.808 38.7979 117.839 35.8289Z" fill="url(#paint35_linear_204_69319)"/>
<path d="M104.689 68.5803C106.772 68.658 112.632 63.2331 112.632 63.2331C112.632 63.2331 106.694 66.7461 105.109 65.658C105.109 65.658 105.28 65.3782 105.497 64.943C110.394 62.7513 109.43 59.1761 108.42 57.2487C109.119 56.0829 109.927 54.7461 110.72 53.5181C111.87 54.5129 113.891 56.9223 112.943 61.1192C112.943 61.1192 116.425 55.8808 112.943 50.2383C113.409 49.6321 113.798 49.1969 114.047 49.0881C115.461 48.4197 117.389 50.8756 118.943 53.7668C118.943 53.7668 117.606 46.0881 115.383 43.6787C111.87 39.9015 103.352 58.3834 103.352 58.3834C103.43 59.1295 105.016 61.8964 101.596 65.8135C101.596 65.829 102.606 68.5026 104.689 68.5803Z" fill="#251635"/>
<path d="M59.0829 102.42C61.1658 101.425 62.5958 98.5803 62.5958 98.5803C57.3264 100.834 51.2332 100.663 51.2332 100.663C51.2332 100.663 56.9844 103.415 59.0829 102.42Z" fill="#251635"/>
<path d="M58.4145 94.8963C69.0311 92.9689 74.0363 83.7823 74.0363 83.7823C74.0363 83.7823 75.1244 85.1191 75.1244 86.7046C75.1244 86.7046 77.6269 81.6995 75.0466 77.6891C72.7927 85.7875 54.5751 90.9792 45.3886 87.886L47.5648 90.6994C47.5648 90.6994 44.0052 93.2642 45.5596 94.2435C45.544 94.2279 50.2539 96.373 58.4145 94.8963ZM49.228 93.6373C48.7772 93.2487 48.9015 90.9015 48.9015 90.9015C59.4249 90.9015 67.2746 88.0103 67.2746 88.0103C60.9171 94.7098 49.6632 94.0414 49.228 93.6373Z" fill="#251635"/>
<path d="M74.9533 6.48183C50.6735 11.3627 41.6113 25.6476 39.5751 29.4559C34.7098 31.7564 33.3419 34.7409 33.202 35.0984L32.9222 35.7668V35.7979L33.0621 35.4715C33.202 35.114 34.6321 31.943 39.6217 29.487C42.1554 24.9171 51.5595 11.2228 75.3886 6.4352C76.9274 6.12432 78.4352 5.89116 79.8963 5.73572C78.3108 5.89116 76.6632 6.13986 74.9533 6.48183Z" fill="black"/>
<path d="M120.855 32.2383C119.332 31.0259 117.42 30.373 115.306 30.373C114.995 30.373 114.668 30.3886 114.357 30.4197C113.083 28.9119 111.668 27.7616 110.58 26.9844C109.943 22.6632 107.363 16.2435 102.016 11.6425C97.2901 7.56992 91.3057 5.50256 84.2176 5.50256C82.8808 5.50256 81.4818 5.58028 80.0518 5.72017C80.0052 5.72017 79.9585 5.73572 79.9119 5.73572C78.4508 5.89116 76.943 6.12433 75.4041 6.43521C51.5751 11.2072 42.1554 24.9171 39.6373 29.487C34.6632 31.9274 33.2176 35.114 33.0777 35.4715L32.9378 35.7979L33.0466 36.4818C33.7461 40.772 32.0984 44.1606 30.6217 46.7409C30.6217 46.7409 30.6217 46.7564 30.6062 46.7564C30.4352 47.0518 30.2642 47.3471 30.0932 47.6269C30.0466 47.6891 30.0155 47.7668 29.9689 47.829C28.9741 49.5233 28.1813 50.8601 28.1658 52.4766C28.1658 54.1243 28.6632 55.5855 29.1606 56.6269C28.7409 57.886 28.3989 59.6735 28.7254 61.7098C29.1761 64.4766 31.43 66.7927 33.373 68.3316C33.4663 70.1191 33.6684 72.3575 34.0881 73.7409C34.4611 74.9533 35.3005 76.228 36.6062 77.5337C33.544 84.2642 34.9741 88.4922 35.3005 89.3005L35.6269 90.0621L36.9015 91.1502L36.2331 91.9274L36.1865 93.171C35.9689 99.4974 41.0829 103.539 42.886 104.767C44.7357 107.269 45.8705 109.554 46.4456 110.876C49.4456 111.964 52.4611 113.036 55.6166 113.58C57.0155 113.705 58.43 113.705 59.829 113.58C61.1969 113.332 62.5337 112.959 63.8238 112.461C66.6839 111.14 69.2798 109.352 71.8445 107.534C73.3057 106.492 74.7513 105.451 76.228 104.44C76.4611 104.285 76.6787 104.145 76.9119 103.99C77.7513 103.197 78.5751 102.404 79.3678 101.627C79.5544 101.503 79.7409 101.363 79.9119 101.238C79.8186 101.534 79.7254 101.86 79.6166 102.202C79.8342 102.047 80.0673 101.891 80.285 101.736C86.4093 96.7616 91.1813 90.202 97.3679 85.3523C97.4456 85.259 97.5233 85.1502 97.601 85.057V85.1813C99.1865 83.9533 100.865 82.8342 102.684 81.9015C103.181 81.6373 103.694 81.4507 104.207 81.3108L104.223 80.6891C109.135 80.2228 113.238 77.0518 113.425 76.9119L113.456 76.8808L114.233 76.1502C120.746 69.886 127.181 63.2953 128.052 57.5129C129.016 51.3264 124.352 35.0518 120.855 32.2383ZM97.6632 15.2798C101.347 18.4507 103.166 22.601 103.927 25.3678C101.503 24.7461 96.4818 23.5958 89.8445 22.8808C91.1813 19.5855 93.6684 16.4922 96.4041 14.3005C96.8393 14.6114 97.2591 14.9378 97.6632 15.2798ZM80.0829 39.7461C79.4145 39.6839 78.7461 39.6217 78.0777 39.5906C78.0311 38.8445 78 38.0829 78.0466 37.5855C78.0932 37.057 80.0363 29.4559 81.0466 25.5233C81.544 25.5699 82.057 25.6165 82.5699 25.6632C81.7305 29.3937 80.2539 36.0155 80.1295 37.259C80.0518 38.0362 80.0673 39 80.0829 39.7461ZM76.6166 39.544C72.7306 39.4352 68.9689 39.7616 65.4093 40.3834C64.9119 39.7927 64.4922 39.2642 64.43 39.0311C64.2901 38.5026 66.8394 29.3782 67.8653 25.772C71.7046 25.3212 75.6528 25.1969 79.7254 25.4456C78.7616 29.1761 76.6321 37.259 76.6321 37.3523C76.6476 37.8963 76.6321 38.7357 76.6166 39.544ZM63.3575 39.4507C63.5129 39.8549 63.6528 40.2746 63.7927 40.6787C63.2331 40.7875 62.6891 40.9119 62.1451 41.0362C61.772 40.5855 61.4922 40.1813 61.4456 39.9792C61.3057 39.4197 63.9326 29.7513 64.9119 26.1917C65.4093 26.114 65.9223 26.0362 66.4352 25.9585C65.4715 29.2228 62.9223 38.2849 63.3575 39.4507ZM60.3575 40.4145C60.4663 40.7254 60.5907 41.0518 60.6839 41.3627C57.9948 42.0466 55.43 42.8704 53.0518 43.772C52.4145 43.0414 51.8083 42.3108 51.7306 42.0155C51.5907 41.4715 54.2487 31.9585 55.228 28.5388C57.9171 27.6684 60.6684 26.9533 63.4663 26.4248C62.5337 29.7046 59.9223 39.2176 60.3575 40.4145ZM50.658 42.4507C50.9067 43.1191 51.1554 43.8497 51.342 44.4404C50.9534 44.5958 50.5647 44.7513 50.1917 44.9222C49.5078 44.1295 48.8238 43.2901 48.7305 42.9637C48.5907 42.4352 51.0155 33.4974 52.0725 29.6269C52.601 29.4248 53.1451 29.2383 53.6891 29.0362C52.7254 32.4248 50.2228 41.316 50.658 42.4507ZM57.1865 46.4611C55.7409 48.1865 53.7046 50.487 52.6476 51.0466C51.5751 51.6062 48.4508 51.1399 46.1658 50.7046C49.9896 48.8393 53.6736 47.4559 57.1865 46.4611ZM84.0311 25.8186C87.6373 26.2694 91.3368 27 95.1295 28.0414C94.3057 32.829 93.1399 37.5544 91.6476 42.1709C88.3989 41.0829 85.1813 40.3678 82.0414 39.9637C81.9171 39.2798 81.8083 38.4715 81.8083 37.8342C81.8083 37.3523 83.1917 30.1399 84.0311 25.8186ZM96.6062 28.4611C97.2435 28.6476 97.8653 28.8497 98.5181 29.0518C97.3679 33.9015 96.4197 38.7823 95.658 43.6943C95.0363 43.43 94.3989 43.1658 93.7772 42.9326C94.7254 38.145 95.6425 33.2642 96.6062 28.4611ZM94.7098 13.2124C91.943 15.8549 89.8445 19.1191 88.6787 22.7564C88.0414 22.6943 87.373 22.6321 86.7046 22.5855C87.6217 19.6476 89.0984 16.8963 91.057 14.5181C88.4145 16.6943 86.3938 19.3678 85.1191 22.4766C81.7461 22.259 78.0777 22.1969 74.2072 22.3523C76.0414 17.5492 80.145 12.7772 83.8912 10.5699C88.0259 10.6165 91.6477 11.5026 94.7098 13.2124ZM65.2383 14.5492C68.3627 13.3057 71.9223 12.202 75.9482 11.3937C77.4404 11.0984 78.886 10.8808 80.2694 10.7564C76.7875 13.8808 74.2228 17.9067 72.9326 22.43C72.2487 22.4611 71.5803 22.5077 70.8808 22.5699C71.7202 19.43 73.1347 16.4456 75.0466 13.8342C72.373 16.2901 70.3989 19.2901 69.2176 22.7098C65.658 23.0362 61.9896 23.5803 58.2435 24.4041C59.5336 20.7513 62.2849 17.0984 65.2383 14.5492ZM50.4093 23.7824C53.0673 21.2798 57 18.2953 62.4715 15.7461C60.2953 18.3264 58.3989 21.3575 57.2176 24.6217C56.5026 24.7927 55.772 24.9637 55.057 25.1502C55.4456 24.0311 55.9585 22.772 56.5492 21.3264C55.3834 22.5388 54.1865 24.0466 53.1606 25.6632C51 26.2849 48.8238 27.0155 46.6632 27.8393C47.6269 26.6425 48.8549 25.2435 50.4093 23.7824ZM50.5337 30.2487C49.4767 34.057 47.2539 42.3109 47.658 43.43C47.9378 44.2072 48.2176 45.0621 48.4197 45.715C46.1347 46.7564 44.0673 47.829 42.2487 48.8704C42 48.4663 41.3938 47.3471 41.4559 46.2901C41.6114 43.1036 42.8083 37.5855 43.5388 33.4974C45.8238 32.2849 48.171 31.1969 50.5337 30.2487ZM34.43 50.145C36.0777 47.3316 38.7824 42.715 38.1295 36.6062C38.1606 36.5596 38.2072 36.5129 38.2383 36.4663C39.3109 35.8134 40.3834 35.1761 41.4715 34.5855C40.9274 37.8808 39.1554 47.3782 36.5751 52.3834C35.6269 53.0362 34.8653 53.5958 34.3057 54.0155C34.0881 53.7202 33.5285 52.8031 33.4818 51.9171C33.6062 51.544 34.0725 50.7513 34.43 50.145ZM40.772 49.7098C40.1502 50.0829 39.5596 50.4404 39 50.7979L39.1865 50.6425L39.9482 46.3678L40.772 49.7098ZM38.6891 65.7357L38.658 64.43C38.9222 64.7564 41.8756 68.316 45.6062 67.6321C46.1658 67.5233 46.6943 67.3212 47.2072 67.0414L44.658 71.8134L41.4559 73.6632C40.4145 72.8083 39.4041 71.7357 39.2487 71.2849C38.9378 70.2901 38.7357 67.4456 38.6891 65.7357ZM44.658 64.6787C43.057 64.4456 41.2072 62.5336 41.2849 62.0673C41.3627 61.601 42.8238 60.9948 49.6476 61.1502C50.0362 61.1502 46.2746 64.8963 44.658 64.6787ZM48.2798 64.5233C48.2798 64.5233 46.6632 66.9171 44.4404 66.8549C42.2176 66.8083 41.5958 64.9585 41.5958 64.9585C41.5958 64.9585 44.2072 67.3523 48.2798 64.5233ZM77.4559 87.0466C77.4559 87.0466 75.0622 98.2849 67.1969 105.979C66.3109 106.725 65.6269 107.238 65.2694 107.44C59.3782 109.383 54.0155 108.668 51.7461 108.218C51.0311 106.508 49.5078 103.368 46.8497 99.9481L46.5388 99.5595L46.1191 99.3108C46.0725 99.2798 42.1865 96.9792 41.7357 93.5129C42.3886 92.3316 43.5699 91.2435 45.2953 90.1243L40.2435 85.8808C40.0725 84.8549 39.9793 82.2746 42.0311 78.3109C43.1813 76.3678 44.5958 75.1243 45.6217 74.3937C46.7875 76.8342 51.9482 77.0673 52.2746 77.2539C52.7409 79.43 53.4559 81.7616 53.4559 81.7616C53.4559 81.7616 54.2021 77.1606 54.3109 77.0362C59.658 75.373 63.9637 71.7357 63.9637 71.7357C63.9637 71.7357 61.9274 69.9481 59.3316 71.4404C57.6684 72.4041 54.4818 75.7772 54.4818 75.7772C53.4248 76.2279 52.057 76.0725 52.057 76.0725C47.8756 71.7357 47.7202 74.487 47.7202 74.487C45.715 72.7772 48.3419 70.772 48.3419 70.772C48.3419 70.772 48.3419 70.772 48.3264 70.772C48.7461 70.43 49.1969 70.1813 49.5544 70.0725C50.6114 69.7461 51.9482 70.7409 53.3471 70.3989C54.7461 70.0725 58.057 67.3989 59.3782 67.1813C61.4456 66.8238 64.6321 68.2694 65.8445 69.4818C67.0881 70.7254 66.9326 72.6373 66.9326 72.6373C66.9326 72.6373 68.0673 71.0207 68.2228 69.9015V69.8704C69.8704 70.1502 71.5958 70.5077 73.3523 70.8963C71.2539 69.0155 68.5492 67.601 65.7668 66.4818C65.3782 66.2487 64.943 66.0311 64.4456 65.8134L61.5233 63.2642C62.9378 63.7461 64.5855 64.0725 66.4197 64.0103C74.0829 63.7616 77.9067 54.4818 77.9067 54.4818L81.9171 54.4041C81.9171 54.4041 76.8964 49.2901 72.9793 49.5544C69.0622 49.8031 60.544 58.1502 56.5181 58.1191C54.1088 58.1036 52.0881 55.7409 52.0881 55.7409C52.0725 56.2228 52.1347 56.6425 52.228 57.0311C51.9948 57.6995 51.4352 58.9585 50.4715 59.4404C48.3575 60.4663 42.6684 58.6632 39.4508 59.4404C37.3057 59.9533 36.9948 62.0362 37.0414 63.3575C35.6114 62.3471 34.0881 60.8393 33.9637 60.0311C33.7927 59.0051 34.0414 58.0725 34.259 57.5285C34.3523 57.3108 34.4611 57.0932 34.5699 56.8912L35.2383 55.8808C36.0932 54.8238 37.3678 53.9378 39.2798 53.6114C39.8393 53.5181 40.4456 53.4248 41.1295 53.3471C43.9274 53.0362 46.4145 53.2849 51.6373 53.4404C51.6373 53.4404 57.8394 50.7979 65.8912 44.9689C73.9119 39.1709 80.487 43.0725 87.171 54.6528C86.6736 59.5181 83.7357 63.3109 79.601 66.5751L82.6943 68.2383L76.8186 69.2331C76.8186 69.2331 76.0881 70.0725 74.5026 71.4093C74.5026 71.4093 80.2694 74.3316 81.5129 78.7616C82.4145 81.9637 78.8083 89.5181 78.8083 89.5181L77.4559 87.0466ZM68.2383 59.4404C66.2798 61.3989 57.886 59.5803 59.2228 58.7564C64.9274 55.259 70.2901 53.8134 70.8808 54.4974C71.4715 55.1813 70.1969 57.4818 68.2383 59.4404ZM75.2798 54.9948C75.7306 55.2124 70.772 66.4974 61.9274 61.9119C62.1761 61.9585 69.4352 63.4197 75.2798 54.9948ZM60.0622 64.6787C57.5751 64.5388 56.8445 65.9222 54.5751 67.3212C50.9533 69.544 49.7875 67.8031 49.7875 67.8031C50.8912 65.4093 51.5596 63.1243 51.9637 61.4922C52.4922 60.4818 52.8963 59.5181 53.1917 58.7409C54.3264 59.9689 56.0052 60.3109 56.4093 60.373L60.0622 64.6787ZM97.6476 75.4663C97.6166 75.5596 94.3989 84.3575 79.3368 95.5026C81.9171 90.6217 85.1502 83.487 84.8704 78.9482C84.6217 74.9378 78.9637 71.4248 78.9637 71.4248C78.9637 71.4248 83.4715 70.5077 88.3212 70.0103L83.9844 66.4197C87.2331 63.3109 89.2072 59.7202 90.5907 54.6373C90.5907 54.6373 88.5388 49.5855 85.9896 45.9948C91.0725 47.3782 94.8186 49.2435 96.9171 50.4715C96.7305 51.9015 96.5751 53.7979 96.4663 56.3316C96.0466 65.658 97.4456 71.5492 98.1606 73.943L97.6476 75.4663ZM97.3057 44.4404C98.5181 39.7461 98.829 34.1658 99.8549 29.5026C102.902 30.5285 105.995 31.7409 109.166 33.171C109.244 33.2487 109.321 33.3419 109.399 33.4197C107.145 35.8134 103.383 40.601 99.544 45.544C98.7979 45.1399 98.0362 44.7824 97.3057 44.4404ZM121.927 55.8497C121.29 60.1088 113.845 67.259 109.85 71.0984L109.414 71.5181C109.073 71.7668 107.72 72.6839 105.933 73.3368C102.218 73.8186 100.803 71.1761 100.119 66.4663C99.4508 61.7875 99.5596 55.772 100.228 53.0984C100.896 50.4248 108.249 40.2901 110.471 37.7254C112.01 35.9689 114.218 35.6269 115.461 35.5803C115.912 35.6269 116.378 35.7668 116.782 36.0777C118.399 37.8652 122.642 51.1554 121.927 55.8497Z" fill="#251635"/>
<path d="M26.2539 81.0466C27.7928 73.0258 27.3731 71.1916 18.9327 67.8497C18.9327 67.8497 26.6114 56.9844 21.3886 52.088C21.3886 52.088 22.1503 58.5543 12.171 64.3367C2.19173 70.1347 2.70469 75.2486 7.05702 79.9274C7.05702 79.9274 4.24354 85.7253 10.8964 90.8393C13.1969 92.6113 17.1917 93.2331 21.5752 93.2331C29.8601 93.2331 39.5596 90.9948 41.9845 90.0621C41.9845 90.0621 24.7151 89.0673 26.2539 81.0466Z" fill="#251635"/>
<path d="M36.0467 90.6218C30.5907 91.0725 25.1814 91.7254 21.4819 91.5699C15.7151 91.3212 13.8031 90.4819 12.3731 89.487C10.228 87.9793 8.93785 85.9896 8.75133 84.0622C8.62697 82.8964 8.89123 81.9793 9.00004 81.6684C9.01558 81.6218 9.03112 81.5907 9.03112 81.5751L10.0259 79.6632L8.50263 77.9534C7.13475 76.43 6.57517 75.2642 6.35755 74.456C6.18656 73.772 6.24874 73.3368 6.27983 73.1036C6.57517 71.0518 9.00003 68.5492 13.1347 66.0622C14.6581 65.1451 16.0415 64.1658 17.2695 63.1399C16.8342 63.9326 16.4145 64.6166 16.057 65.1606L13.741 68.5492L17.4715 70.0725C21.2177 71.6114 23.0518 72.7306 23.5803 73.7876C24.1244 74.9067 23.8601 77.1762 23.2073 80.7513C22.7565 83.2228 23.3316 86.2539 25.4301 87.5596C28.2436 89.3161 32.0052 89.8912 36.0467 90.6218Z" fill="white"/>
<path d="M20.7202 76.8342C20.2694 80.0984 19.3679 84.1865 20.7979 86.7202C21.8705 88.6165 24.0622 89.6269 27.5596 90.0621C27.5596 90.0621 22.8808 90.4818 18.0311 89.5647C12.1244 88.4455 11.4093 83.1606 16.6943 80.7979C18.513 75.5751 17.2073 73.5699 13.9741 71.3626C14.0052 71.3471 21.2332 73.2435 20.7202 76.8342Z" fill="#A7AABD"/>
<path d="M54.4974 59.6581L54.1865 58.0415L50.658 58.9741L50.9067 60.5907L54.4974 59.6581Z" fill="#BE6119"/>
<path d="M54.4974 59.6581L54.1865 58.0415L50.658 58.9741L50.9067 60.5907L54.4974 59.6581Z" fill="url(#paint36_linear_204_69319)"/>
<path d="M82.3368 50.1606C82.3057 50.1606 82.2901 50.1606 82.259 50.1606L74.6425 65.7824C75.9637 65.5492 77.2539 65.2695 78.4352 64.8964L83.316 54.2487C83.0984 52.943 82.7875 51.5285 82.3368 50.1606Z" fill="#686978"/>
<path d="M44.6425 68.0052C45.4041 67.8187 46.1813 67.6166 46.9119 67.3679L48.9326 61.4923L48.2798 58.0415L44.6425 68.0052Z" fill="#686978"/>
<path d="M40.228 68.9223L43.8497 68.456L47.7513 56.6426L44.0207 56.0985L40.228 68.9223Z" fill="#A7A9BD"/>
<path d="M73.7254 50.1295L66.373 67.2591L72.1554 66.4197L80.2383 49.6632L73.7254 50.1295Z" fill="#A7A9BD"/>
<path d="M37.6165 67.9119C37.8963 67.6322 41.6269 57.3109 41.6269 57.3109L35.3937 58.9741C35.0984 62.2384 37.3367 68.1917 37.6165 67.9119Z" fill="white"/>
<path d="M66.2798 51.2488L54.9326 54.684C54.9326 54.684 55.772 63.0623 58.4766 65.4871C61.1813 67.912 61.8342 62.8757 61.8342 62.8757C61.8342 62.8757 67.0414 52.5389 67.2279 52.1814C67.3989 51.8084 66.2798 51.2488 66.2798 51.2488Z" fill="white"/>
<path fill-rule="evenodd" clip-rule="evenodd" d="M84.1865 48.8394C84.3264 49.0415 84.544 49.1969 84.8549 49.1969L85.1036 50.0207C85.3989 50.9845 85.7254 52.228 86.0518 53.6891L86.3316 56.6114C85.7565 57.342 85.4611 58.3057 85.2124 59.3161C85.1813 59.456 85.1813 59.5648 85.1969 59.6891C84.2331 62.114 82.8497 64.3834 80.8601 66.1244C79.7875 67.057 78.5751 67.7254 77.2539 68.1451C76.3989 68.3627 75.5129 68.5337 74.6269 68.6736C74.1451 68.7047 73.6632 68.7202 73.1813 68.7202C73.1503 68.7047 73.1191 68.7202 73.0881 68.7202C73.0725 68.7202 73.057 68.7202 73.0414 68.7202C71.8135 68.7513 70.5855 68.829 69.3575 68.9068C67.5233 69.0311 65.6891 69.1399 63.8394 69.0933C60.7616 69 57.5596 68.2228 55.8653 65.456C55.8031 65.3627 55.7098 65.2694 55.6321 65.2073C55.5855 64.9897 55.4611 64.8187 55.3212 64.7254C55.2901 64.6788 55.2746 64.6477 55.2591 64.601C55.2435 64.6166 55.228 64.6166 55.2124 64.6166C55.1969 64.6166 55.1813 64.6321 55.1658 64.6321C55.0104 64.57 54.8705 64.5544 54.6995 64.57C54.6839 64.57 54.6684 64.57 54.6684 64.57C54.6062 64.5544 54.544 64.5389 54.4663 64.5389C53.3316 64.4922 52.4145 64.9741 51.5285 65.6581C51.2487 65.8757 51 66.1088 50.7357 66.3575C50.1762 66.886 49.601 67.4145 48.8705 67.6943C48.544 67.7876 48.2176 67.943 47.8912 68.1606C47.5958 68.3472 47.487 68.627 47.5026 68.8912C45.342 69.8238 43.1813 70.741 40.9119 71.4093C39.1399 71.9223 37.3989 71.6891 35.6269 71.456C35.1295 71.3938 34.6166 71.3161 34.1192 71.2694C31.0881 67.1347 31.3679 60.3109 31.4456 58.9586L31.5389 57.4819C33.8394 57.7306 36.171 57.1244 38.3627 56.4871C38.6269 56.4093 38.8912 56.3316 39.1554 56.2539C41.3627 55.6011 43.5389 54.9482 45.8238 54.513C46.772 54.4197 47.7979 54.3264 48.9015 54.2643C49.1192 54.3109 49.3212 54.4042 49.5078 54.513C49.7254 54.6684 49.9741 54.9016 50.2228 55.1503C50.7513 55.6788 51.342 56.2694 51.9948 56.2073C53.114 56.0985 53.6114 55.2902 54.1243 54.4353C54.171 54.3575 54.2176 54.2643 54.2798 54.1865C54.8238 53.3005 55.8808 52.9741 56.8912 52.6632C57.2331 52.5544 57.5751 52.4456 57.886 52.3213C57.9793 52.2902 58.0725 52.2435 58.1347 52.1658C60.5751 51.8394 62.8135 50.9378 65.0673 50.0363C65.4404 49.8809 65.8135 49.7409 66.1865 49.6011C67.057 49.2435 67.9274 48.9638 68.8134 48.7306C72.3886 48.0467 76.3057 47.5182 80.2072 47.2539C81.5751 47.285 83.2694 47.5026 83.9844 48.5907C84.0311 48.715 84.1088 48.7772 84.1865 48.8394ZM36.6062 60.0311C36.5751 61.7099 36.7305 64.6943 37.5699 66.8394L40.7409 58.4456C38.5026 59.0207 37.228 59.6581 36.6062 60.0311ZM44.7202 57.6529L40.8031 68.6425C41.487 68.5648 42.2331 68.456 42.9948 68.3472L46.9275 57.4042C46.1347 57.4819 45.4041 57.5596 44.7202 57.6529ZM44.6425 68.0052C45.4197 67.8187 46.1813 67.6166 46.9119 67.3679L48.9171 61.4922L48.2642 58.0415L44.6425 68.0052ZM50.658 58.9586L50.9067 60.5907L54.4974 59.6425L54.1865 58.0259L50.658 58.9586ZM58.0103 63.4352C58.3057 64.0104 58.6787 64.5544 59.0829 65.0052L65.4559 52.3679C61.0103 53.3005 57.4818 54.3264 55.9119 55.0726L56.0829 55.0104C56.0829 55.0104 56.0363 55.057 55.9275 55.1347L56.2383 57.0156C56.5492 58.7099 57.1399 61.2591 58.0103 63.4352ZM67.0103 66.4508C68.3782 66.4353 69.8549 66.3575 71.3471 66.2176L78.9793 50.3627C77.4715 50.5026 75.9637 50.6425 74.4715 50.8446L67.0103 66.4508ZM74.658 65.7824C75.9793 65.5648 77.2694 65.2694 78.4508 64.8964L83.316 54.2487C83.0984 52.943 82.7875 51.5285 82.3368 50.1606H82.2746L74.658 65.7824Z" fill="#251635"/>
</g>
<defs>
<linearGradient id="paint0_linear_204_69319" x1="66.8341" y1="0.139893" x2="66.8341" y2="119.97" gradientUnits="userSpaceOnUse">
<stop stop-color="#C7FB41"/>
<stop offset="1" stop-color="#78CD3C"/>
</linearGradient>
<linearGradient id="paint1_linear_204_69319" x1="88.5466" y1="45.9948" x2="88.5466" y2="95.5025" gradientUnits="userSpaceOnUse">
<stop stop-color="#C7FB41"/>
<stop offset="1" stop-color="#78CD3C"/>
</linearGradient>
<linearGradient id="paint2_linear_204_69319" x1="51.6684" y1="46.4611" x2="51.6684" y2="51.2965" gradientUnits="userSpaceOnUse">
<stop stop-color="#C7FB41"/>
<stop offset="1" stop-color="#78CD3C"/>
</linearGradient>
<linearGradient id="paint3_linear_204_69319" x1="96.886" y1="14.3005" x2="96.886" y2="25.3679" gradientUnits="userSpaceOnUse">
<stop stop-color="#C7FB41"/>
<stop offset="1" stop-color="#78CD3C"/>
</linearGradient>
<linearGradient id="paint4_linear_204_69319" x1="84.443" y1="10.5699" x2="84.443" y2="22.7565" gradientUnits="userSpaceOnUse">
<stop stop-color="#C7FB41"/>
<stop offset="1" stop-color="#78CD3C"/>
</linearGradient>
<linearGradient id="paint5_linear_204_69319" x1="103.352" y1="29.4869" x2="103.352" y2="45.5284" gradientUnits="userSpaceOnUse">
<stop stop-color="#C7FB41"/>
<stop offset="1" stop-color="#78CD3C"/>
</linearGradient>
<linearGradient id="paint6_linear_204_69319" x1="72.0594" y1="25.3038" x2="72.0594" y2="40.3678" gradientUnits="userSpaceOnUse">
<stop stop-color="#C7FB41"/>
<stop offset="1" stop-color="#78CD3C"/>
</linearGradient>
<linearGradient id="paint7_linear_204_69319" x1="96.1321" y1="28.4611" x2="96.1321" y2="43.6942" gradientUnits="userSpaceOnUse">
<stop stop-color="#C7FB41"/>
<stop offset="1" stop-color="#78CD3C"/>
</linearGradient>
<linearGradient id="paint8_linear_204_69319" x1="80.2967" y1="25.5232" x2="80.2967" y2="39.7615" gradientUnits="userSpaceOnUse">
<stop stop-color="#C7FB41"/>
<stop offset="1" stop-color="#78CD3C"/>
</linearGradient>
<linearGradient id="paint9_linear_204_69319" x1="88.4689" y1="25.8186" x2="88.4689" y2="42.1709" gradientUnits="userSpaceOnUse">
<stop stop-color="#C7FB41"/>
<stop offset="1" stop-color="#78CD3C"/>
</linearGradient>
<linearGradient id="paint10_linear_204_69319" x1="58.0767" y1="88.0103" x2="58.0767" y2="93.8631" gradientUnits="userSpaceOnUse">
<stop stop-color="#C7FB41"/>
<stop offset="1" stop-color="#78CD3C"/>
</linearGradient>
<linearGradient id="paint11_linear_204_69319" x1="110.838" y1="35.5958" x2="110.838" y2="73.4117" gradientUnits="userSpaceOnUse">
<stop stop-color="#C7FB41"/>
<stop offset="1" stop-color="#78CD3C"/>
</linearGradient>
<linearGradient id="paint12_linear_204_69319" x1="60.57" y1="42.313" x2="60.57" y2="108.742" gradientUnits="userSpaceOnUse">
<stop stop-color="#C7FB41"/>
<stop offset="1" stop-color="#78CD3C"/>
</linearGradient>
<linearGradient id="paint13_linear_204_69319" x1="88.375" y1="45.6373" x2="88.375" y2="68.2384" gradientUnits="userSpaceOnUse">
<stop stop-color="#C7FB41"/>
<stop offset="1" stop-color="#78CD3C" stop-opacity="0"/>
</linearGradient>
<linearGradient id="paint14_linear_204_69319" x1="84.2564" y1="70.556" x2="84.2564" y2="76.9431" gradientUnits="userSpaceOnUse">
<stop stop-color="#C7FB41"/>
<stop offset="1" stop-color="#78CD3C" stop-opacity="0"/>
</linearGradient>
<linearGradient id="paint15_linear_204_69319" x1="59.0811" y1="41.3524" x2="59.0811" y2="65.3471" gradientUnits="userSpaceOnUse">
<stop stop-color="#C7FB41"/>
<stop offset="1" stop-color="#78CD3C"/>
</linearGradient>
<linearGradient id="paint16_linear_204_69319" x1="42.7117" y1="62.9999" x2="42.7117" y2="74.2808" gradientUnits="userSpaceOnUse">
<stop stop-color="#C7FB41"/>
<stop offset="1" stop-color="#78CD3C"/>
</linearGradient>
<linearGradient id="paint17_linear_204_69319" x1="52.9029" y1="58.4611" x2="52.9029" y2="68.6784" gradientUnits="userSpaceOnUse">
<stop stop-color="#C7FB41"/>
<stop offset="1" stop-color="#78CD3C"/>
</linearGradient>
<linearGradient id="paint18_linear_204_69319" x1="55.8416" y1="66.6257" x2="55.8416" y2="75.2331" gradientUnits="userSpaceOnUse">
<stop stop-color="#C7FB41"/>
<stop offset="1" stop-color="#78CD3C"/>
</linearGradient>
<linearGradient id="paint19_linear_204_69319" x1="57.4767" y1="71.5026" x2="57.4767" y2="88.9328" gradientUnits="userSpaceOnUse">
<stop stop-color="#C7FB41"/>
<stop offset="1" stop-color="#78CD3C"/>
</linearGradient>
<linearGradient id="paint20_linear_204_69319" x1="56.9922" y1="87.202" x2="56.9922" y2="100.534" gradientUnits="userSpaceOnUse">
<stop stop-color="#C7FB41"/>
<stop offset="1" stop-color="#78CD3C"/>
</linearGradient>
<linearGradient id="paint21_linear_204_69319" x1="58.4637" y1="102.514" x2="58.4637" y2="109.043" gradientUnits="userSpaceOnUse">
<stop stop-color="#C7FB41" stop-opacity="0"/>
<stop offset="1" stop-color="#78CD3C"/>
</linearGradient>
<linearGradient id="paint22_linear_204_69319" x1="111.752" y1="34.7863" x2="111.752" y2="65.3626" gradientUnits="userSpaceOnUse">
<stop stop-color="#C7FB41"/>
<stop offset="1" stop-color="#78CD3C"/>
</linearGradient>
<linearGradient id="paint23_linear_204_69319" x1="74.8679" y1="8.90894" x2="74.8679" y2="29.4715" gradientUnits="userSpaceOnUse">
<stop stop-color="#C7FB41"/>
<stop offset="1" stop-color="#78CD3C"/>
</linearGradient>
<linearGradient id="paint24_linear_204_69319" x1="59.4032" y1="86.3005" x2="59.4032" y2="94.8503" gradientUnits="userSpaceOnUse">
<stop stop-color="#C7FB41"/>
<stop offset="1" stop-color="#78CD3C"/>
</linearGradient>
<linearGradient id="paint25_linear_204_69319" x1="50.0638" y1="39.1963" x2="50.0638" y2="54.7616" gradientUnits="userSpaceOnUse">
<stop stop-color="#C7FB41"/>
<stop offset="1" stop-color="#78CD3C"/>
</linearGradient>
<linearGradient id="paint26_linear_204_69319" x1="62.3627" y1="23.8622" x2="62.3627" y2="47.316" gradientUnits="userSpaceOnUse">
<stop stop-color="#C7FB41"/>
<stop offset="1" stop-color="#78CD3C"/>
</linearGradient>
<linearGradient id="paint27_linear_204_69319" x1="70.2823" y1="10.0469" x2="70.2823" y2="25.4766" gradientUnits="userSpaceOnUse">
<stop stop-color="#C7FB41"/>
<stop offset="1" stop-color="#78CD3C"/>
</linearGradient>
<linearGradient id="paint28_linear_204_69319" x1="51.0751" y1="61.8497" x2="51.0751" y2="68.3501" gradientUnits="userSpaceOnUse">
<stop stop-color="#C7FB41"/>
<stop offset="1" stop-color="#78CD3C"/>
</linearGradient>
<linearGradient id="paint29_linear_204_69319" x1="51.802" y1="69.8082" x2="51.802" y2="73.43" gradientUnits="userSpaceOnUse">
<stop stop-color="#C7FB41"/>
<stop offset="1" stop-color="#78CD3C"/>
</linearGradient>
<linearGradient id="paint30_linear_204_69319" x1="43.3567" y1="73.259" x2="43.3567" y2="86.1295" gradientUnits="userSpaceOnUse">
<stop stop-color="#C7FB41"/>
<stop offset="1" stop-color="#78CD3C"/>
</linearGradient>
<linearGradient id="paint31_linear_204_69319" x1="53.7839" y1="95.4714" x2="53.7839" y2="98.461" gradientUnits="userSpaceOnUse">
<stop stop-color="#C7FB41" stop-opacity="0"/>
<stop offset="1" stop-color="#78CD3C"/>
</linearGradient>
<linearGradient id="paint32_linear_204_69319" x1="56.4109" y1="83.2849" x2="56.4109" y2="87.0975" gradientUnits="userSpaceOnUse">
<stop stop-color="#C7FB41" stop-opacity="0"/>
<stop offset="1" stop-color="#78CD3C"/>
</linearGradient>
<linearGradient id="paint33_linear_204_69319" x1="58.8653" y1="48.8704" x2="58.8653" y2="55.2186" gradientUnits="userSpaceOnUse">
<stop stop-color="#C7FB41"/>
<stop offset="1" stop-color="#78CD3C"/>
</linearGradient>
<linearGradient id="paint34_linear_204_69319" x1="36.3238" y1="52.9259" x2="36.3238" y2="63.3732" gradientUnits="userSpaceOnUse">
<stop stop-color="#C7FB41"/>
<stop offset="1" stop-color="#78CD3C"/>
</linearGradient>
<linearGradient id="paint35_linear_204_69319" x1="113.495" y1="34.4528" x2="113.495" y2="52.088" gradientUnits="userSpaceOnUse">
<stop stop-color="#C7FB41"/>
<stop offset="1" stop-color="#78CD3C"/>
</linearGradient>
<linearGradient id="paint36_linear_204_69319" x1="52.5777" y1="58.0415" x2="52.5777" y2="60.5907" gradientUnits="userSpaceOnUse">
<stop stop-color="#C7FB41"/>
<stop offset="1" stop-color="#78CD3C"/>
</linearGradient>
<clipPath id="clip0_204_69319">
<rect width="133.679" height="120" fill="white"/>
</clipPath>
</defs>
</svg>
