<svg width="16" height="11" viewBox="0 0 16 11" fill="none" xmlns="http://www.w3.org/2000/svg" aria-hidden="true" role="img" class="icon icon-eye sm" icon="eye"><path fill-rule="evenodd" clip-rule="evenodd" d="M8 0c4.8 0 8 4.4 8 5.5 0 1.1-3.2 5.5-8 5.5S0 6.6 0 5.5C0 4.4 3.2 0 8 0zm0 1.571c-2.21 0-4 1.76-4 3.929 0 2.17 1.79 3.929 4 3.929s4-1.76 4-3.929c0-2.17-1.79-3.929-4-3.929zM10 5.5c0-1.085-.895-1.964-2-1.964-1.104 0-2 .88-2 1.964 0 1.085.896 1.964 2 1.964 1.105 0 2-.88 2-1.964z" fill="currentColor"></path></svg>